<?xml version="1.0" encoding="UTF-8" ?>
<svg version="1.1" width="24" height="4" xmlns="http://www.w3.org/2000/svg" shape-rendering="crispEdges">
<rect x="0" y="0" width="1" height="1" fill="#E51C23" />
<rect x="1" y="0" width="1" height="1" fill="#E51C23" />
<rect x="2" y="0" width="1" height="1" fill="#E51C23" />
<rect x="3" y="0" width="1" height="1" fill="#FF5722" />
<rect x="4" y="0" width="1" height="1" fill="#FF5722" />
<rect x="5" y="0" width="1" height="1" fill="#FF5722" />
<rect x="6" y="0" width="1" height="1" fill="#FF9800" />
<rect x="7" y="0" width="1" height="1" fill="#FF9800" />
<rect x="8" y="0" width="1" height="1" fill="#FFC107" />
<rect x="9" y="0" width="1" height="1" fill="#FFEB3B" />
<rect x="10" y="0" width="1" height="1" fill="#FFEB3B" />
<rect x="11" y="0" width="1" height="1" fill="#CDDC39" />
<rect x="12" y="0" width="1" height="1" fill="#8BC34A" />
<rect x="13" y="0" width="1" height="1" fill="#8BC34A" />
<rect x="14" y="0" width="1" height="1" fill="#2BAF2B" />
<rect x="15" y="0" width="1" height="1" fill="#00BCD4" />
<rect x="16" y="0" width="1" height="1" fill="#00BCD4" />
<rect x="17" y="0" width="1" height="1" fill="#5677FC" />
<rect x="18" y="0" width="1" height="1" fill="#3F51B5" />
<rect x="19" y="0" width="1" height="1" fill="#3F51B5" />
<rect x="20" y="0" width="1" height="1" fill="#3F51B5" />
<rect x="21" y="0" width="1" height="1" fill="#9C27B0" />
<rect x="22" y="0" width="1" height="1" fill="#9C27B0" />
<rect x="23" y="0" width="1" height="1" fill="#9C27B0" />
<rect x="0" y="1" width="1" height="1" fill="#E51C23" />
<rect x="1" y="1" width="1" height="1" fill="#E51C23" />
<rect x="2" y="1" width="1" height="1" fill="#E51C23" />
<rect x="3" y="1" width="1" height="1" fill="#FF5722" />
<rect x="4" y="1" width="1" height="1" fill="#FF5722" />
<rect x="5" y="1" width="1" height="1" fill="#FF5722" />
<rect x="6" y="1" width="1" height="1" fill="#FF9800" />
<rect x="7" y="1" width="1" height="1" fill="#FF9800" />
<rect x="8" y="1" width="1" height="1" fill="#FFC107" />
<rect x="9" y="1" width="1" height="1" fill="#FFEB3B" />
<rect x="10" y="1" width="1" height="1" fill="#FFEB3B" />
<rect x="11" y="1" width="1" height="1" fill="#CDDC39" />
<rect x="12" y="1" width="1" height="1" fill="#8BC34A" />
<rect x="13" y="1" width="1" height="1" fill="#8BC34A" />
<rect x="14" y="1" width="1" height="1" fill="#2BAF2B" />
<rect x="15" y="1" width="1" height="1" fill="#00BCD4" />
<rect x="16" y="1" width="1" height="1" fill="#00BCD4" />
<rect x="17" y="1" width="1" height="1" fill="#5677FC" />
<rect x="18" y="1" width="1" height="1" fill="#3F51B5" />
<rect x="19" y="1" width="1" height="1" fill="#3F51B5" />
<rect x="20" y="1" width="1" height="1" fill="#3F51B5" />
<rect x="21" y="1" width="1" height="1" fill="#9C27B0" />
<rect x="22" y="1" width="1" height="1" fill="#9C27B0" />
<rect x="23" y="1" width="1" height="1" fill="#9C27B0" />
<rect x="0" y="2" width="1" height="1" fill="#E51C23" />
<rect x="1" y="2" width="1" height="1" fill="#E51C23" />
<rect x="2" y="2" width="1" height="1" fill="#E51C23" />
<rect x="3" y="2" width="1" height="1" fill="#FF5722" />
<rect x="4" y="2" width="1" height="1" fill="#FF5722" />
<rect x="5" y="2" width="1" height="1" fill="#FF5722" />
<rect x="6" y="2" width="1" height="1" fill="#FF9800" />
<rect x="7" y="2" width="1" height="1" fill="#FF9800" />
<rect x="8" y="2" width="1" height="1" fill="#FFC107" />
<rect x="9" y="2" width="1" height="1" fill="#FFEB3B" />
<rect x="10" y="2" width="1" height="1" fill="#FFEB3B" />
<rect x="11" y="2" width="1" height="1" fill="#CDDC39" />
<rect x="12" y="2" width="1" height="1" fill="#8BC34A" />
<rect x="13" y="2" width="1" height="1" fill="#8BC34A" />
<rect x="14" y="2" width="1" height="1" fill="#2BAF2B" />
<rect x="15" y="2" width="1" height="1" fill="#00BCD4" />
<rect x="16" y="2" width="1" height="1" fill="#00BCD4" />
<rect x="17" y="2" width="1" height="1" fill="#5677FC" />
<rect x="18" y="2" width="1" height="1" fill="#3F51B5" />
<rect x="19" y="2" width="1" height="1" fill="#3F51B5" />
<rect x="20" y="2" width="1" height="1" fill="#3F51B5" />
<rect x="21" y="2" width="1" height="1" fill="#9C27B0" />
<rect x="22" y="2" width="1" height="1" fill="#9C27B0" />
<rect x="23" y="2" width="1" height="1" fill="#9C27B0" />
<rect x="0" y="3" width="1" height="1" fill="#E51C23" />
<rect x="1" y="3" width="1" height="1" fill="#E51C23" />
<rect x="2" y="3" width="1" height="1" fill="#E51C23" />
<rect x="3" y="3" width="1" height="1" fill="#FF5722" />
<rect x="4" y="3" width="1" height="1" fill="#FF5722" />
<rect x="5" y="3" width="1" height="1" fill="#FF5722" />
<rect x="6" y="3" width="1" height="1" fill="#FF9800" />
<rect x="7" y="3" width="1" height="1" fill="#FF9800" />
<rect x="8" y="3" width="1" height="1" fill="#FFC107" />
<rect x="9" y="3" width="1" height="1" fill="#FFEB3B" />
<rect x="10" y="3" width="1" height="1" fill="#FFEB3B" />
<rect x="11" y="3" width="1" height="1" fill="#CDDC39" />
<rect x="12" y="3" width="1" height="1" fill="#8BC34A" />
<rect x="13" y="3" width="1" height="1" fill="#8BC34A" />
<rect x="14" y="3" width="1" height="1" fill="#2BAF2B" />
<rect x="15" y="3" width="1" height="1" fill="#00BCD4" />
<rect x="16" y="3" width="1" height="1" fill="#00BCD4" />
<rect x="17" y="3" width="1" height="1" fill="#5677FC" />
<rect x="18" y="3" width="1" height="1" fill="#3F51B5" />
<rect x="19" y="3" width="1" height="1" fill="#3F51B5" />
<rect x="20" y="3" width="1" height="1" fill="#3F51B5" />
<rect x="21" y="3" width="1" height="1" fill="#9C27B0" />
<rect x="22" y="3" width="1" height="1" fill="#9C27B0" />
<rect x="23" y="3" width="1" height="1" fill="#9C27B0" />
</svg>